<?xml version="1.0" encoding="UTF-8"?>
<svg xmlns="http://www.w3.org/2000/svg" viewBox="0 0 355.8 151">
    <g fill="#111d41">
        <path d="m220.88 149.84h5.54v-27.69h-5.5v18.91l-11.83-18.91h-5.66v27.69h5.5v-18.75zm-38.01 0h14.6v-4.99h-9.02v-6.57h7.44v-4.94h-7.44v-6.17h8.66v-5.02h-14.24zm-18.63-4.79v-7.2h3.4c2.26 0 4.04 1.26 4.04 3.56s-1.78 3.64-4.04 3.64zm0-11.71v-6.37h3.08c2.1 0 3.52 1.23 3.52 3.12s-1.5 3.24-3.44 3.24h-3.16zm-5.58 16.5h9.3c5.1 0 9.49-2.73 9.49-8.11 0-2.85-1.62-5.18-4.23-6.29 2.02-1.11 3.32-3.44 3.32-5.97 0-4.47-3.6-7.32-9.1-7.32h-8.78zm-17.92.51c7.16 0 11.16-4.39 11.16-10.92v-17.29h-5.58v17.29c0 3.52-2.02 5.74-5.58 5.74s-5.58-2.22-5.58-5.74v-17.29h-5.58v17.29c0 6.53 4 10.92 11.15 10.92m-29.27-28.72c-8.43 0-14.36 6.41-14.36 14.36 0 8.74 6.53 14.36 14.36 14.36 5.81 0 9.14-2.02 12.1-4.55v-10.96h-10.48v4.71h5.26v3.4c-.59.59-2.77 2.17-6.65 2.17-4.98 0-8.78-3.48-8.78-9.14 0-5.14 3.36-9.18 8.78-9.18 3.96 0 6.33 2.14 7.16 3.05l3.52-3.64c-1.42-1.7-5.1-4.59-10.92-4.59"></path>
        <path d="m214.71 105h5.54v-12.66l8.51-15.03h-6.29l-4.98 9.93-4.99-9.93h-6.29l8.51 15.03v12.66zm-24.45 0h5.58v-22.67h6.45v-5.02h-18.51v5.02h6.49v22.67zm-17.13 0h5.58v-27.69h-5.58zm-13.85.51c4.04 0 6.8-1.39 8.47-2.61l-1.58-4.87c-1.31.91-3.88 2.25-6.88 2.25-5.02 0-8.62-3.84-8.62-9.14s3.6-9.14 8.62-9.14c2.81 0 5.3 1.27 6.65 2.22l1.58-4.9c-1.78-1.31-4.55-2.53-8.23-2.53-8.35 0-14.44 6.21-14.44 14.36s5.78 14.36 14.44 14.36m-41.49-.51h5.58v-22.67h6.45v-5.02h-18.51v5.02h6.49v22.67zm-23.02-15.55v-7.32h2.33c2.53 0 4.07 1.39 4.07 3.6 0 2.45-1.78 3.72-3.8 3.72h-2.61zm-5.58 15.55h5.58v-10.84h2.97l5.38 10.84h6.17l-6.57-12.14c2.53-1.38 4.19-3.96 4.19-7.32 0-4.55-3.32-8.23-9.38-8.23h-8.35v27.69zm-14.04-11.75h-6.45l3.2-9.97 3.24 9.97zm1.46 4.63 2.41 7.12h5.62l-9.81-27.69h-5.85l-9.81 27.69h5.62l2.41-7.12zm-45.02-20.57h-7.2v27.69h5.34v-19.78l7.2 17.44h5.18l7.2-17.44v19.78h5.34v-27.69h-7.2l-7.95 18.87zm-21.6-.51c-5.3 0-8.7 3.2-8.7 7.87 0 8.86 11.95 8.07 11.95 12.82 0 1.78-1.23 2.85-3.28 2.85-2.49 0-4.03-1.7-4.79-3.52l-4.71 2.29c.79 2.25 3.24 6.41 9.18 6.41s9.26-3.56 9.26-8.43c0-8.58-12.02-7.91-12.02-12.5 0-1.5 1.11-2.65 3.01-2.65 2.41 0 3.44 1.7 4.03 3.01l4.63-2.1c-.67-2.02-2.97-6.05-8.54-6.05"></path>
        <path d="m6.75 62.76s51.45-54.42 131.44-54.42c97.25 0 160.75 141.42 160.75 141.42h25.57s-68.06-148-186.32-148c-79.99 0-131.44 61-131.44 61"></path>
    </g>
    <path d="m99.61 62.76s36.6-41.25 109.6-41.25 127.4 81.25 127.4 81.25h17s-54.41-89.26-144.41-89.26c-73 0-109.6 49.25-109.6 49.25"
          fill="#40dfdb"></path>
</svg>
